<svg xmlns="http://www.w3.org/2000/svg" width="32.917" height="32.917" viewBox="0 0 32.917 32.917"><g transform="translate(0 0)"><path d="M28.018,28.126h-1.31a3.211,3.211,0,0,0-5.6,0H14.613a3.211,3.211,0,0,0-5.6,0H7.987a1.786,1.786,0,0,1,0-3.571H28.018a.964.964,0,0,0,.949-.791l2.31-12.647A6.717,6.717,0,1,0,19.63,8.13H6.569L5.89,4.685a.964.964,0,0,0-.946-.778H.964a.964.964,0,0,0,0,1.929H4.151L4.8,9.142a.965.965,0,0,0,.016.14L7.464,22.664a3.714,3.714,0,0,0,.523,7.391h.63a3.214,3.214,0,0,0,6.39,0h5.706a3.214,3.214,0,0,0,6.39,0h.916a.964.964,0,0,0,0-1.929ZM26.2,1.929a4.792,4.792,0,1,1-4.79,4.792A4.8,4.8,0,0,1,26.2,1.929Zm-5.83,8.13A6.713,6.713,0,0,0,29,12.827l-1.79,9.8H9.423L6.948,10.059ZM11.812,30.988A1.287,1.287,0,1,1,13.1,29.7,1.288,1.288,0,0,1,11.812,30.988Zm12.1,0A1.287,1.287,0,1,1,25.194,29.7,1.288,1.288,0,0,1,23.908,30.988Z" transform="translate(0 0)"/><path d="M377.976,59.181v2.564a.964.964,0,1,0,1.929,0V57.516a.964.964,0,0,0-1.477-.817l-1.14.716a.964.964,0,0,0,.688,1.765Z" transform="translate(-352.609 -52.916)"/></g></svg>